<svg xmlns="http://www.w3.org/2000/svg" viewBox="0 0 295.68 360"><title>Recurso 1</title><g id="Capa_2" data-name="Capa 2"><g id="Capa_1-2" data-name="Capa 1"><g id="_341772144" data-name=" 341772144"><path id="_341772624" data-name=" 341772624" d="M17.76,0H201.69a5.79,5.79,0,0,1,4.1,1.71L294,89.92h0A5.72,5.72,0,0,1,295.68,94h0V342.24A17.79,17.79,0,0,1,277.92,360H17.76A17.79,17.79,0,0,1,0,342.24V17.76A17.79,17.79,0,0,1,17.76,0ZM199.3,11.52H17.76a6.28,6.28,0,0,0-6.24,6.24V342.24a6.28,6.28,0,0,0,6.24,6.24H277.92a6.28,6.28,0,0,0,6.24-6.24V96.38L199.3,11.52Z"/><path id="_341772600" data-name=" 341772600" d="M289.4,99.73l-87.49-.26v0a5.75,5.75,0,0,1-5.75-5.77c0-.16,0-.32,0-.48L196,5.77h0a5.76,5.76,0,0,1,9.86-4L294,89.92h0a5.76,5.76,0,0,1-4.59,9.81Z"/></g></g></g></svg>