<svg id="Capa_1" enable-background="new 0 0 512.024 512.024" height="512" viewBox="0 0 512.024 512.024" width="512" xmlns="http://www.w3.org/2000/svg"><g><path d="m16.477 280.399c-7.587-43.244 14.993-86.601 54.535-105.364 2.673-1.268 4.351-3.99 4.283-6.948-1.27-55.861 43.744-100.363 97.896-100.363 17.351 0 34.398 4.601 49.302 13.304 3.652 2.133 8.354.823 10.374-2.899 35.038-64.575 118.782-82.775 177.303-39.763 3.337 2.454 8.031 1.736 10.484-1.602s1.736-8.032-1.602-10.485c-63.897-46.964-154.244-28.979-195.624 38.22-15.54-7.722-32.759-11.775-50.239-11.775-61.594 0-111.829 49.57-112.907 110.911-43.237 22.814-67.069 70.972-58.579 119.357.713 4.065 4.584 6.808 8.684 6.091 4.079-.716 6.806-4.604 6.09-8.684z"/><path d="m468.652 174.581c3.798-12.625 5.721-25.735 5.721-39.053 0-30.551-9.925-59.392-28.701-83.407-2.552-3.263-7.265-3.84-10.527-1.289-3.264 2.551-3.841 7.265-1.289 10.528 26.285 33.619 31.693 76.671 18.922 113.573-1.093 3.155.032 6.652 2.759 8.579 25.737 18.183 41.488 47.757 41.488 80.031 0 53.996-43.929 97.924-97.924 97.924h-39.121c9.876-13.692 9.24-31.658-1.261-44.499l-74.502-91.059c-6.948-8.485-17.224-13.351-28.192-13.351-.001 0 0 0 0 0-10.968 0-21.245 4.867-28.195 13.354l-74.502 91.058c-9.002 11.009-10.811 25.829-4.721 38.675.985 2.077 2.157 4.013 3.462 5.822h-39.12c-36.6 0-68.778-20.051-85.634-50.4-2.012-3.622-6.578-4.927-10.198-2.915-3.621 2.011-4.926 6.577-2.915 10.198 19.381 34.892 56.408 58.117 98.747 58.117h82.864v99.43c0 19.914 16.201 36.115 36.115 36.115h48.194c19.914 0 36.115-16.201 36.115-36.115v-99.43h82.864c62.267 0 112.924-50.658 112.924-112.924-.001-34.811-15.941-67.469-43.373-88.962zm-138.128 186.886h-21.788c-4.143 0-7.5 3.358-7.5 7.5v106.93c0 11.643-9.473 21.115-21.115 21.115h-48.194c-11.643 0-21.115-9.472-21.115-21.115v-106.93c0-4.142-3.358-7.5-7.5-7.5h-21.788c-18.112 0-28.067-20.96-16.585-35l74.498-91.054c8.581-10.48 24.606-10.465 33.172-.003l74.499 91.055c11.436 13.987 1.587 35.002-16.584 35.002z"/><path d="m182.659 142.566v12.048c0 4.142 3.358 7.5 7.5 7.5s7.5-3.358 7.5-7.5v-12.048c0-4.142-3.358-7.5-7.5-7.5s-7.5 3.358-7.5 7.5z"/><path d="m267.723 149.612c-6.171 7.099-17.211 7.117-23.399 0-2.717-3.125-7.455-3.456-10.581-.738-3.125 2.718-3.456 7.455-.738 10.581 12.165 13.99 33.888 13.973 46.039 0 2.718-3.126 2.387-7.863-.739-10.581-3.125-2.717-7.862-2.387-10.582.738z"/><path d="m324.208 132.816c-11.831 0-21.456 9.626-21.456 21.456 0 4.142 3.357 7.5 7.5 7.5s7.5-3.358 7.5-7.5c0-3.56 2.896-6.456 6.456-6.456 3.505 0 6.401 2.841 6.457 6.334.089 4.607 3.596 7.622 7.509 7.622 4.118 0 7.755-3.38 7.484-8.1-.311-11.522-9.883-20.856-21.45-20.856z"/></g></svg>