<svg width="25" height="25" viewBox="0 0 25 25" fill="none" xmlns="http://www.w3.org/2000/svg">
<path d="M7.56706 2.85919C8.18568 3.06957 8.95091 3.40487 9.69211 3.90472C10.5904 3.67315 11.5496 3.54861 12.5436 3.54861C13.5365 3.54861 14.4948 3.6729 15.3923 3.90402C16.1333 3.40442 16.8984 3.06929 17.5168 2.85902C18.2137 2.62208 19.207 2.23734 19.7967 2.89065C20.1971 3.33419 20.2964 4.07859 20.3678 4.64612C20.4476 5.28031 20.4662 6.10697 20.2563 6.92658C21.0592 7.96338 21.5436 9.20105 21.5436 10.5486C21.5436 12.5908 20.4375 14.3634 18.8004 15.5912C18.0469 16.1563 17.1709 16.6159 16.2102 16.9474C16.4246 17.4377 16.5436 17.9793 16.5436 18.5486V21.5486C16.5436 22.1009 16.0958 22.5486 15.5436 22.5486H9.54351C8.99123 22.5486 8.54351 22.1009 8.54351 21.5486V20.5573C7.58819 20.6743 6.78759 20.5708 6.10606 20.2817C5.39427 19.9797 4.89815 19.5113 4.52527 19.0638C4.17157 18.6394 3.78596 17.6835 3.22726 17.4973C2.70332 17.3226 2.42016 16.7563 2.5948 16.2324C2.76945 15.7084 3.33577 15.4253 3.85971 15.5999C4.52549 15.8218 4.959 16.302 5.25665 16.6872C5.73571 17.3071 6.1271 18.1181 6.88716 18.4405C7.19972 18.5731 7.65892 18.6611 8.37576 18.5623L8.54356 18.5288C8.54629 17.9667 8.66495 17.432 8.87687 16.9474C7.91619 16.6159 7.04012 16.1563 6.28666 15.5912C4.64952 14.3634 3.54351 12.5908 3.54351 10.5486C3.54351 9.20263 4.02675 7.96626 4.82794 6.9302C4.61725 6.10995 4.63563 5.2824 4.71538 4.64758C4.71698 4.63483 4.71858 4.62203 4.72019 4.60918C4.79307 4.0277 4.87895 3.34244 5.28653 2.89076C5.87612 2.23741 6.87022 2.62222 7.56706 2.85919Z" fill="#09244B"/>
</svg>
