<svg width="351" height="351" viewBox="0 0 351 351" fill="none" xmlns="http://www.w3.org/2000/svg">
<path d="M176 85.1562C126 85.1562 86.1562 125.781 86.1562 175C86.1562 225 126 264.844 176 264.844C225.219 264.844 265.844 225 265.844 175C265.844 125.781 225.219 85.1562 176 85.1562ZM176 233.594C143.969 233.594 117.406 207.812 117.406 175C117.406 142.969 143.188 117.188 176 117.188C208.031 117.188 233.812 142.969 233.812 175C233.812 207.812 208.031 233.594 176 233.594ZM290.062 82.0312C290.062 70.3125 280.688 60.9375 268.969 60.9375C257.25 60.9375 247.875 70.3125 247.875 82.0312C247.875 93.75 257.25 103.125 268.969 103.125C280.688 103.125 290.062 93.75 290.062 82.0312ZM349.438 103.125C347.875 75 341.625 50 321.312 29.6875C301 9.375 276 3.125 247.875 1.5625C218.969 0 132.25 0 103.344 1.5625C75.2188 3.125 51 9.375 29.9062 29.6875C9.59375 50 3.34375 75 1.78125 103.125C0.21875 132.031 0.21875 218.75 1.78125 247.656C3.34375 275.781 9.59375 300 29.9062 321.094C51 341.406 75.2188 347.656 103.344 349.219C132.25 350.781 218.969 350.781 247.875 349.219C276 347.656 301 341.406 321.312 321.094C341.625 300 347.875 275.781 349.438 247.656C351 218.75 351 132.031 349.438 103.125ZM311.938 278.125C306.469 293.75 293.969 305.469 279.125 311.719C255.688 321.094 201 318.75 176 318.75C150.219 318.75 95.5312 321.094 72.875 311.719C57.25 305.469 45.5312 293.75 39.2812 278.125C29.9062 255.469 32.25 200.781 32.25 175C32.25 150 29.9062 95.3125 39.2812 71.875C45.5312 57.0312 57.25 45.3125 72.875 39.0625C95.5312 29.6875 150.219 32.0312 176 32.0312C201 32.0312 255.688 29.6875 279.125 39.0625C293.969 44.5312 305.688 57.0312 311.938 71.875C321.312 95.3125 318.969 150 318.969 175C318.969 200.781 321.312 255.469 311.938 278.125Z" fill="white"/>
</svg>
