<svg width="400" height="325" viewBox="0 0 400 325" fill="none" xmlns="http://www.w3.org/2000/svg">
<path d="M358.594 80.75C374.219 69.0312 388.281 54.9688 399.219 38.5625C385.156 44.8125 368.75 49.5 352.344 51.0625C369.531 40.9062 382.031 25.2812 388.281 5.75C372.656 15.125 354.688 22.1562 336.719 26.0625C321.094 9.65625 300 0.28125 276.562 0.28125C231.25 0.28125 194.531 37 194.531 82.3125C194.531 88.5625 195.312 94.8125 196.875 101.062C128.906 97.1562 67.9688 64.3438 27.3438 15.125C20.3125 26.8438 16.4062 40.9062 16.4062 56.5312C16.4062 84.6562 30.4688 109.656 53.125 124.5C39.8438 123.719 26.5625 120.594 15.625 114.344V115.125C15.625 154.969 43.75 187.781 81.25 195.594C75 197.156 67.1875 198.719 60.1562 198.719C54.6875 198.719 50 197.938 44.5312 197.156C54.6875 229.969 85.1562 253.406 121.094 254.188C92.9688 276.062 57.8125 289.344 19.5312 289.344C12.5 289.344 6.25 288.562 0 287.781C35.9375 311.219 78.9062 324.5 125.781 324.5C276.562 324.5 358.594 200.281 358.594 91.6875C358.594 87.7812 358.594 84.6562 358.594 80.75Z" fill="white"/>
</svg>
