<svg width="169" height="169" viewBox="0 0 169 169" fill="none" xmlns="http://www.w3.org/2000/svg">
<path d="M135.598 31.888C121.838 18.095 103.513 10.5089 84.0386 10.5089C43.8419 10.5089 11.1329 43.2179 11.1329 83.4146C11.1329 96.2552 14.4826 108.8 20.8536 119.867L10.5089 157.634L49.1621 147.486C59.8024 153.299 71.7891 156.353 84.0057 156.353H84.0386C124.202 156.353 157.634 123.644 157.634 83.4474C157.634 63.9731 149.358 45.681 135.598 31.888ZM84.0386 144.071C73.1356 144.071 62.4624 141.148 53.1686 135.631L50.9683 134.317L28.0457 140.327L34.154 117.963L32.709 115.664C26.6335 106.009 23.448 94.8759 23.448 83.4146C23.448 50.0159 50.6399 22.8241 84.0714 22.8241C100.262 22.8241 115.467 29.1294 126.895 40.5907C138.324 52.052 145.352 67.2571 145.319 83.4474C145.319 116.879 117.437 144.071 84.0386 144.071ZM117.273 98.6854C115.467 97.7659 106.501 93.3652 104.827 92.7741C103.152 92.1501 101.937 91.8546 100.721 93.6936C99.5064 95.5327 96.0253 99.6049 94.9416 100.853C93.8907 102.068 92.807 102.232 91.0007 101.313C80.2948 95.9596 73.2669 91.7561 66.2062 79.638C64.3343 76.4196 68.0781 76.6495 71.5592 69.6873C72.1503 68.4722 71.8548 67.4213 71.395 66.5018C70.9352 65.5823 67.29 56.6168 65.7793 52.9715C64.3015 49.4248 62.7908 49.9174 61.6743 49.8517C60.6234 49.786 59.4083 49.786 58.1932 49.786C56.9781 49.786 55.0077 50.2458 53.3328 52.052C51.6579 53.8911 46.9618 58.2917 46.9618 67.2571C46.9618 76.2226 53.497 84.8924 54.3837 86.1075C55.3032 87.3226 67.2243 105.713 85.5164 113.628C97.0762 118.62 101.608 119.046 107.388 118.193C110.902 117.667 118.16 113.792 119.67 109.523C121.181 105.253 121.181 101.608 120.721 100.853C120.294 100.032 119.079 99.5721 117.273 98.6854Z" fill="black"/>
</svg>
